<svg width="24" height="24" viewBox="0 0 24 24" fill="none" xmlns="http://www.w3.org/2000/svg">
<path fill-rule="evenodd" clip-rule="evenodd" d="M11.5975 1.18505C11.8633 1.13038 12.1375 1.13038 12.4033 1.18505C12.7105 1.24824 12.9852 1.40207 13.2035 1.52436C13.2239 1.53575 13.2437 1.54687 13.263 1.55761L20.663 5.66872C20.6835 5.68009 20.7046 5.6917 20.7262 5.70359C20.9573 5.8309 21.2479 5.99097 21.4711 6.23315C21.6641 6.44253 21.8101 6.6907 21.8994 6.96105C22.0027 7.27375 22.0015 7.60553 22.0005 7.8694C22.0005 7.89406 22.0004 7.91813 22.0004 7.94153V16.0586C22.0004 16.082 22.0005 16.1061 22.0005 16.1308C22.0015 16.3946 22.0027 16.7264 21.8994 17.0391C21.8101 17.3095 21.6641 17.5576 21.4711 17.767C21.2479 18.0092 20.9573 18.1693 20.7262 18.2966C20.7046 18.3085 20.6835 18.3201 20.663 18.3314L13.263 22.4426C13.2437 22.4533 13.2239 22.4644 13.2035 22.4758C12.9852 22.5981 12.7105 22.7519 12.4033 22.8151C12.1375 22.8698 11.8633 22.8698 11.5975 22.8151C11.2902 22.7519 11.0156 22.5981 10.7972 22.4758C10.7769 22.4644 10.757 22.4533 10.7377 22.4426L3.3377 18.3314C3.31724 18.3201 3.29616 18.3085 3.27457 18.2966C3.04343 18.1693 2.75281 18.0092 2.52964 17.767C2.33668 17.5576 2.19066 17.3095 2.10134 17.0391C1.99802 16.7264 1.99923 16.3946 2.00019 16.1308C2.00028 16.1061 2.00037 16.082 2.00037 16.0586V7.94153C2.00037 7.91813 2.00028 7.89406 2.00019 7.8694C1.99923 7.60553 1.99802 7.27375 2.10134 6.96105C2.19066 6.6907 2.33668 6.44253 2.52963 6.23315C2.75281 5.99097 3.04343 5.8309 3.27456 5.7036C3.29616 5.6917 3.31724 5.68009 3.3377 5.66872L10.7377 1.55761C10.757 1.54687 10.7769 1.53575 10.7972 1.52436C11.0156 1.40207 11.2902 1.24824 11.5975 1.18505ZM12.0004 3.14907C11.9988 3.1498 11.9973 3.15056 11.9956 3.15136C11.9379 3.1792 11.8605 3.22173 11.709 3.30592L5.05951 7.00008L12.0003 10.8561L18.9412 7.00006L12.2918 3.30592C12.1402 3.22173 12.0629 3.1792 12.0052 3.15136C12.0035 3.15056 12.0019 3.1498 12.0004 3.14907ZM20.0004 8.69955V16.0586C20.0004 16.2416 20 16.3353 19.9959 16.4031C19.9957 16.4051 19.9956 16.407 19.9955 16.4088C19.994 16.4098 19.9924 16.4108 19.9907 16.4119C19.9334 16.4484 19.8517 16.4943 19.6918 16.5831L13.0004 20.3006L13.0003 12.5885L20.0004 8.69955ZM11.0003 12.5885L4.00037 8.69959V16.0586C4.00037 16.2416 4.00078 16.3353 4.00487 16.4031C4.00499 16.4051 4.00511 16.407 4.00523 16.4088C4.00677 16.4098 4.00838 16.4108 4.01007 16.4119C4.06737 16.4484 4.14903 16.4943 4.30898 16.5831L11.0004 20.3006L11.0003 12.5885Z" fill="#204C97"/>
<path fill-rule="evenodd" clip-rule="evenodd" d="M6.62602 4.01454C6.89424 3.53176 7.50304 3.35781 7.98582 3.62602L16.9858 8.62602C17.4686 8.89424 17.6426 9.50304 17.3743 9.98582C17.1061 10.4686 16.4973 10.6426 16.0145 10.3743L7.01454 5.37434C6.53176 5.10613 6.35781 4.49732 6.62602 4.01454Z" fill="#204C97"/>
</svg>
