<svg width="48" height="48" viewBox="0 0 48 48" fill="none" xmlns="http://www.w3.org/2000/svg">
<path fill-rule="evenodd" clip-rule="evenodd" d="M24 14C23.7348 14 23.4804 14.1054 23.2929 14.2929C23.1054 14.4804 23 14.7348 23 15V15.174C22.9979 15.6908 22.8448 16.1957 22.5594 16.6266C22.2741 17.0575 21.869 17.3956 21.3939 17.5991C21.3094 17.6354 21.2204 17.6597 21.1296 17.6716C20.698 17.8227 20.2333 17.86 19.781 17.778C19.26 17.6835 18.7793 17.4351 18.4007 17.0649L18.3928 17.0571L18.3329 16.9971C18.24 16.9041 18.1293 16.83 18.0079 16.7797C17.8865 16.7293 17.7564 16.7034 17.625 16.7034C17.4936 16.7034 17.3635 16.7293 17.2421 16.7797C17.1207 16.83 17.0104 16.9037 16.9175 16.9967L16.9167 16.9975C16.8237 17.0904 16.75 17.2007 16.6997 17.3221C16.6493 17.4435 16.6234 17.5736 16.6234 17.705C16.6234 17.8364 16.6493 17.9665 16.6997 18.0879C16.75 18.2093 16.8237 18.3196 16.9167 18.4125L16.9849 18.4807C17.3552 18.8592 17.6035 19.34 17.698 19.861C17.7905 20.3716 17.7311 20.898 17.5275 21.3748C17.3419 21.8613 17.017 22.2827 16.593 22.5859C16.1605 22.8952 15.645 23.0673 15.1134 23.0797L15.09 23.08H15C14.7348 23.08 14.4804 23.1854 14.2929 23.3729C14.1054 23.5604 14 23.8148 14 24.08C14 24.3452 14.1054 24.5996 14.2929 24.7871C14.4804 24.9746 14.7348 25.08 15 25.08H15.174C15.6908 25.0821 16.1957 25.2352 16.6266 25.5206C17.056 25.8049 17.3932 26.2082 17.597 26.6811C17.8091 27.1643 17.8721 27.6998 17.778 28.219C17.6835 28.74 17.4351 29.2207 17.0649 29.5993L17.0571 29.6072L16.9971 29.6671C16.9041 29.76 16.83 29.8707 16.7797 29.9921C16.7293 30.1135 16.7034 30.2436 16.7034 30.375C16.7034 30.5064 16.7293 30.6365 16.7797 30.7579C16.83 30.8793 16.9037 30.9896 16.9967 31.0825L16.9975 31.0833C17.0904 31.1763 17.2007 31.25 17.3221 31.3003C17.4435 31.3507 17.5736 31.3766 17.705 31.3766C17.8364 31.3766 17.9665 31.3507 18.0879 31.3003C18.2093 31.25 18.3196 31.1763 18.4125 31.0833L18.4807 31.0151C18.8592 30.6448 19.34 30.3965 19.861 30.302C20.3716 30.2095 20.898 30.2689 21.3748 30.4725C21.8613 30.6581 22.2827 30.983 22.5859 31.407C22.8952 31.8395 23.0673 32.355 23.0797 32.8866L23.08 32.91V33C23.08 33.2652 23.1854 33.5196 23.3729 33.7071C23.5604 33.8946 23.8148 34 24.08 34C24.3452 34 24.5996 33.8946 24.7871 33.7071C24.9746 33.5196 25.08 33.2652 25.08 33V32.83L25.08 32.826C25.0821 32.3092 25.2352 31.8043 25.5206 31.3734C25.805 30.944 26.2083 30.6067 26.6812 30.4029C27.1643 30.1909 27.6998 30.1279 28.219 30.222C28.74 30.3165 29.2207 30.5649 29.5993 30.9351L29.6071 30.9429L29.6671 31.0029C29.76 31.0959 29.8707 31.17 29.9921 31.2203C30.1135 31.2707 30.2436 31.2966 30.375 31.2966C30.5064 31.2966 30.6365 31.2707 30.7579 31.2203C30.8793 31.17 30.9896 31.0963 31.0825 31.0033L31.0833 31.0025C31.1763 30.9096 31.25 30.7993 31.3003 30.6779C31.3507 30.5565 31.3766 30.4264 31.3766 30.295C31.3766 30.1636 31.3507 30.0335 31.3003 29.9121C31.25 29.7907 31.1763 29.6804 31.0833 29.5875L31.0151 29.5193C30.6448 29.1408 30.3965 28.66 30.302 28.139C30.2079 27.6198 30.2709 27.0843 30.4829 26.6012C30.6867 26.1283 31.024 25.725 31.4534 25.4406C31.8843 25.1552 32.3892 25.0021 32.906 25L32.91 25L33 25C33.2652 25 33.5196 24.8946 33.7071 24.7071C33.8946 24.5196 34 24.2652 34 24C34 23.7348 33.8946 23.4804 33.7071 23.2929C33.5196 23.1054 33.2652 23 33 23H32.83L32.826 23C32.3092 22.9979 31.8043 22.8448 31.3734 22.5594C30.9425 22.2741 30.6045 21.869 30.4009 21.3939C30.3646 21.3094 30.3403 21.2204 30.3284 21.1296C30.1773 20.698 30.14 20.2333 30.222 19.781C30.3165 19.26 30.5649 18.7793 30.9351 18.4007L30.9428 18.3929L31.0029 18.3329C31.0959 18.24 31.17 18.1293 31.2203 18.0079C31.2707 17.8865 31.2966 17.7564 31.2966 17.625C31.2966 17.4936 31.2707 17.3635 31.2203 17.2421C31.17 17.1207 31.0963 17.0104 31.0033 16.9175L31.0025 16.9167C30.9096 16.8237 30.7993 16.75 30.6779 16.6997C30.5565 16.6493 30.4264 16.6234 30.295 16.6234C30.1636 16.6234 30.0335 16.6493 29.9121 16.6997C29.7907 16.75 29.6804 16.8237 29.5875 16.9167L29.5193 16.9849C29.1408 17.3552 28.66 17.6035 28.139 17.698C27.6198 17.7921 27.0843 17.7291 26.6011 17.517C26.1282 17.3132 25.7249 16.976 25.4406 16.5466C25.1552 16.1157 25.0021 15.6108 25 15.094L25 15.09V15C25 14.7348 24.8946 14.4804 24.7071 14.2929C24.5196 14.1054 24.2652 14 24 14ZM21.8787 12.8787C22.4413 12.3161 23.2044 12 24 12C24.7956 12 25.5587 12.3161 26.1213 12.8787C26.6839 13.4413 27 14.2043 27 15V15.0875C27.0008 15.2137 27.0383 15.337 27.1081 15.4423C27.178 15.548 27.2774 15.6309 27.3939 15.6809L27.4038 15.6851C27.5226 15.7375 27.6544 15.7532 27.7822 15.73C27.9086 15.7071 28.0253 15.6473 28.1177 15.5581L28.1725 15.5033C28.4511 15.2244 28.782 15.0031 29.1462 14.8521C29.5104 14.7011 29.9008 14.6234 30.295 14.6234C30.6892 14.6234 31.0796 14.7011 31.4438 14.8521C31.808 15.0031 32.1389 15.2244 32.4175 15.5033C32.6961 15.7817 32.9171 16.1123 33.0679 16.4762C33.2189 16.8404 33.2966 17.2308 33.2966 17.625C33.2966 18.0192 33.2189 18.4096 33.0679 18.7738C32.917 19.1378 32.6959 19.4686 32.4171 19.7471C32.417 19.7472 32.4172 19.747 32.4171 19.7471L32.3619 19.8023C32.2727 19.8947 32.2129 20.0114 32.19 20.1378C32.1668 20.2656 32.1824 20.3974 32.2349 20.5162C32.2631 20.5803 32.2845 20.6469 32.2988 20.7151C32.3461 20.7848 32.4068 20.845 32.4777 20.8919C32.583 20.9617 32.7063 20.9992 32.8325 21H33C33.7957 21 34.5587 21.3161 35.1213 21.8787C35.6839 22.4413 36 23.2043 36 24C36 24.7957 35.6839 25.5587 35.1213 26.1213C34.5587 26.6839 33.7957 27 33 27H32.9125C32.7863 27.0008 32.663 27.0383 32.5577 27.1081C32.452 27.178 32.3691 27.2774 32.3191 27.3939L32.3149 27.4038C32.2625 27.5226 32.2468 27.6544 32.27 27.7822C32.2929 27.9086 32.3527 28.0253 32.4419 28.1177L32.4967 28.1725C32.4966 28.1724 32.4968 28.1726 32.4967 28.1725C32.7755 28.451 32.997 28.7822 33.1479 29.1462C33.2989 29.5104 33.3766 29.9008 33.3766 30.295C33.3766 30.6892 33.2989 31.0796 33.1479 31.4438C32.9969 31.808 32.7756 32.1389 32.4967 32.4175L31.79 31.71L32.4975 32.4167C32.2189 32.6956 31.888 32.9169 31.5238 33.0679C31.1596 33.2189 30.7692 33.2966 30.375 33.2966C29.9808 33.2966 29.5904 33.2189 29.2262 33.0679C28.8622 32.917 28.5314 32.6959 28.2529 32.4171C28.2528 32.417 28.253 32.4172 28.2529 32.4171L28.1977 32.3619C28.1053 32.2727 27.9886 32.2129 27.8622 32.19C27.7344 32.1668 27.6026 32.1824 27.4838 32.2349L27.474 32.2392C27.3574 32.2891 27.258 32.372 27.1881 32.4777C27.1183 32.583 27.0808 32.7063 27.08 32.8325V33C27.08 33.7957 26.7639 34.5587 26.2013 35.1213C25.6387 35.6839 24.8757 36 24.08 36C23.2843 36 22.5213 35.6839 21.9587 35.1213C21.3961 34.5587 21.08 33.7957 21.08 33V32.9244C21.0753 32.7972 21.0333 32.6741 20.9591 32.5704C20.8833 32.4644 20.7772 32.3836 20.6548 32.3385C20.635 32.3313 20.6155 32.3234 20.5962 32.3149C20.4774 32.2624 20.3456 32.2468 20.2178 32.27C20.0914 32.2929 19.9747 32.3527 19.8823 32.4419L19.8275 32.4967C19.8274 32.4968 19.8276 32.4966 19.8275 32.4967C19.549 32.7755 19.2178 32.997 18.8538 33.1479C18.4896 33.2989 18.0992 33.3766 17.705 33.3766C17.3108 33.3766 16.9204 33.2989 16.5562 33.1479C16.1923 32.9971 15.8617 32.7761 15.5833 32.4975C15.3044 32.2189 15.0831 31.888 14.9321 31.5238C14.7811 31.1596 14.7034 30.7692 14.7034 30.375C14.7034 29.9808 14.7811 29.5904 14.9321 29.2262C15.0831 28.862 15.3044 28.5311 15.5833 28.2525L15.6381 28.1977C15.7273 28.1053 15.7871 27.9886 15.81 27.8622C15.8332 27.7344 15.8176 27.6026 15.7651 27.4838L15.7608 27.474C15.7109 27.3574 15.628 27.258 15.5223 27.1881C15.417 27.1183 15.2937 27.0808 15.1675 27.08H15C14.2043 27.08 13.4413 26.7639 12.8787 26.2013C12.3161 25.6387 12 24.8756 12 24.08C12 23.2844 12.3161 22.5213 12.8787 21.9587C13.4413 21.3961 14.2043 21.08 15 21.08H15.0756C15.2028 21.0753 15.3259 21.0333 15.4296 20.9591C15.5356 20.8833 15.6164 20.7772 15.6615 20.6548C15.6687 20.635 15.6766 20.6155 15.6851 20.5962C15.7376 20.4774 15.7532 20.3456 15.73 20.2178C15.7071 20.0914 15.6473 19.9747 15.5581 19.8823L15.5033 19.8275C15.2244 19.5489 15.0031 19.218 14.8521 18.8538C14.7011 18.4896 14.6234 18.0992 14.6234 17.705C14.6234 17.3108 14.7011 16.9204 14.8521 16.5562C15.003 16.1922 15.2241 15.8614 15.5029 15.5829C15.7814 15.3041 16.1122 15.083 16.4762 14.9321C16.8404 14.7811 17.2308 14.7034 17.625 14.7034C18.0192 14.7034 18.4096 14.7811 18.7738 14.9321C19.138 15.0831 19.4689 15.3044 19.7475 15.5833L19.8023 15.6381C19.8947 15.7273 20.0114 15.7871 20.1378 15.81C20.2656 15.8332 20.3974 15.8176 20.5162 15.7651C20.5803 15.7369 20.6469 15.7155 20.7151 15.7012C20.7848 15.6539 20.845 15.5932 20.8919 15.5223C20.9617 15.417 20.9992 15.2937 21 15.1675V15C21 14.2043 21.3161 13.4413 21.8787 12.8787ZM24 22C22.8954 22 22 22.8954 22 24C22 25.1046 22.8954 26 24 26C25.1046 26 26 25.1046 26 24C26 22.8954 25.1046 22 24 22ZM20 24C20 21.7909 21.7909 20 24 20C26.2091 20 28 21.7909 28 24C28 26.2091 26.2091 28 24 28C21.7909 28 20 26.2091 20 24Z" fill="#204C97"/>
</svg>
